<svg xmlns="http://www.w3.org/2000/svg" viewBox="0 0 587.59 356.57"><defs><style>.cls-1{font-size:118px;font-family:Roboto-Black, Roboto;}.cls-1,.cls-2,.cls-4{fill:#668ba6;}.cls-3{fill:#325272;}.cls-4{stroke:#fafcfd;stroke-width:8px;}.cls-4,.cls-5,.cls-6{stroke-miterlimit:10;}.cls-5{fill:none;stroke:#fff;}.cls-5,.cls-6{stroke-width:5px;}.cls-6{fill:#a3bfda;stroke:#d4e5f0;}</style></defs><title>Asset 1</title><g id="Layer_2" data-name="Layer 2"><g id="Layer_1-2" data-name="Layer 1"><text class="cls-1" transform="translate(295.47 164.24)">squid</text><path class="cls-2" d="M78.81,106A73.08,73.08,0,0,1,63.2,135.09c-12.34,13.78-20.77,11.58-37.36,26.31-5.26,4.67-26.9,23.88-23.68,44.14.67,4.22,2.69,10.2,5.36,10.35,4.41.26,4.9-15.69,13.39-29.34,13.23-21.29,33.64-17.28,53.94-36.06,8.24-7.62,18.3-20.7,23.68-44.14"/><path class="cls-3" d="M77,101.3a73.08,73.08,0,0,1-15.61,29.14C49,144.22,40.59,142,24,156.75c-5.26,4.67-26.9,23.88-23.68,44.14C1,205.11,3,211.09,5.69,211.24c4.41.26,4.9-15.69,13.39-29.34C32.31,160.61,52.71,164.63,73,145.85c8.24-7.62,18.3-20.7,23.68-44.14"/><path class="cls-2" d="M99.87,135.5a106.42,106.42,0,0,1-19.26,35.06c-14.35,17-23.07,15.3-42,33.84-6,5.88-30.7,30.06-29.21,53.11.31,4.81,1.89,11.5,4.7,11.43,4.64-.12,6.66-18.54,16.92-35.08,16-25.79,37.21-23.08,60.47-46.64,9.44-9.56,21.31-25.58,29.21-53.11"/><path class="cls-3" d="M97.71,129.47a106.42,106.42,0,0,1-19.26,35.06c-14.35,17-23.07,15.3-42,33.84-6,5.88-30.7,30.06-29.21,53.11.31,4.81,1.89,11.5,4.7,11.43,4.64-.12,6.66-18.54,16.92-35.08,16-25.79,37.21-23.08,60.47-46.64,9.44-9.56,21.31-25.58,29.21-53.11"/><path class="cls-2" d="M126.73,160.28a106.42,106.42,0,0,1-19.26,35.06c-14.35,17-38.45,31.28-57.38,49.82-6,5.88-30.7,30.06-29.21,53.11.31,4.81,1.89,11.5,4.7,11.43,4.64-.12,6.66-18.54,16.92-35.08,16-25.79,52.59-39.06,75.85-62.62,9.44-9.56,21.31-25.58,29.21-53.11"/><path class="cls-3" d="M125.1,153.4a106.42,106.42,0,0,1-19.26,35.06c-14.35,17-38.45,31.28-57.38,49.82-6,5.88-30.7,30.06-29.21,53.11.31,4.81,1.89,11.5,4.7,11.43,4.64-.12,6.66-18.54,16.92-35.08,16-25.79,52.59-39.06,75.85-62.62,9.44-9.56,21.31-25.58,29.21-53.11"/><circle class="cls-4" cx="193.18" cy="122.41" r="44" transform="translate(-12.39 222.63) rotate(-58.35)"/><path class="cls-2" d="M257.58,216.14a73.08,73.08,0,0,0-19,27c-6.77,17.22-1,23.76-6.71,45.2-1.81,6.8-9.25,34.76-28.79,41-4.07,1.3-10.32,2.18-11.66-.14-2.21-3.83,11.81-11.43,20.2-25.14,13.08-21.39.32-37.81,8-64.39,3.11-10.79,10.27-25.65,28.79-41"/><path class="cls-3" d="M262.56,215.69a73.08,73.08,0,0,0-19,27c-6.77,17.22-1,23.76-6.71,45.2-1.81,6.8-9.25,34.76-28.79,41-4.07,1.3-10.32,2.18-11.66-.14-2.21-3.83,11.81-11.43,20.2-25.14,13.08-21.39.32-37.81,8-64.39,3.11-10.79,10.27-25.65,28.79-41"/><path class="cls-2" d="M221.72,210.61a106.42,106.42,0,0,0-22.67,33c-8.78,20.48-3.3,27.48-11.36,52.73-2.55,8-13.06,40.94-34.32,50-4.43,1.88-11.13,3.48-12.32.94-2-4.2,13.57-14.28,23.73-30.88,15.85-25.89,3.9-43.62,14.5-75,4.3-12.73,13.28-30.54,34.32-50"/><path class="cls-3" d="M228.07,209.83a106.42,106.42,0,0,0-22.67,33c-8.78,20.48-3.3,27.48-11.36,52.73-2.55,8-13.06,40.94-34.32,50-4.43,1.88-11.13,3.48-12.32.94-2-4.2,13.57-14.28,23.73-30.88,15.85-25.89,3.9-43.62,14.5-75,4.3-12.73,13.28-30.54,34.32-50"/><path class="cls-2" d="M187.51,197.75a106.42,106.42,0,0,0-22.67,33c-8.78,20.48-10.67,48.4-18.72,73.65-2.55,8-13.06,40.94-34.32,50-4.43,1.88-11.13,3.48-12.32.94-2-4.2,13.57-14.28,23.73-30.88,15.85-25.89,11.26-64.54,21.86-95.89,4.3-12.73,13.28-30.54,34.32-50"/><path class="cls-3" d="M194.39,196.11a106.42,106.42,0,0,0-22.67,33c-8.78,20.48-10.67,48.4-18.72,73.65-2.55,8-13.06,40.94-34.32,50-4.43,1.88-11.13,3.48-12.32.94-2-4.2,13.57-14.28,23.73-30.88,15.85-25.89,11.26-64.54,21.86-95.89,4.3-12.73,13.28-30.54,34.32-50"/><path class="cls-3" d="M278,27.35C277.83,4.26,260.7-6.31,240,3.88L79.57,82.74C58.84,92.93,58,111.18,77.63,123.3L244.31,226c19.66,12.12,35.58,3.14,35.37-20Z"/><circle class="cls-5" cx="196.7" cy="116.7" r="62.71" transform="translate(-5.85 222.92) rotate(-58.35)"/><circle class="cls-6" cx="196.7" cy="116.7" r="34.62" transform="matrix(0.52, -0.85, 0.85, 0.52, -5.85, 222.92)"/></g></g></svg>