<svg xmlns="http://www.w3.org/2000/svg" xmlns:xlink="http://www.w3.org/1999/xlink" viewBox="0 0 241.75 262.74"><defs><style>.cls-1{fill:none;}.cls-2{clip-path:url(#clip-path);}.cls-3{fill:#182e3e;}.cls-4{fill:#325272;}</style><clipPath id="clip-path" transform="translate(0 0)"><rect class="cls-1" width="241.75" height="262.74"/></clipPath></defs><title>computer</title><g id="Layer_2" data-name="Layer 2"><g id="Layer_1-2" data-name="Layer 1"><g id="Artwork_7" data-name="Artwork 7"><g class="cls-2"><g class="cls-2"><path class="cls-3" d="M220.65,45.9H169.33a5.32,5.32,0,1,0,0,10.63h51.32a10.54,10.54,0,0,1,10.52,10.52V199a10.54,10.54,0,0,1-10.52,10.52H21.15A10.54,10.54,0,0,1,10.63,199v-132A10.54,10.54,0,0,1,21.15,56.53H73.28a5.32,5.32,0,0,0,0-10.63H21.15A21.19,21.19,0,0,0,0,67.05V199a21.19,21.19,0,0,0,21.15,21.15h94.43v31.94H71.46a5.32,5.32,0,1,0,0,10.63h98.83a5.32,5.32,0,0,0,0-10.63H126.16V220.17h94.43A21.19,21.19,0,0,0,241.75,199v-132a21.11,21.11,0,0,0-21.1-21.15" transform="translate(0 0)"/><path class="cls-4" d="M150.86,20.88A20.91,20.91,0,0,0,130,0h-18.2A20.91,20.91,0,0,0,90.89,20.88V33.39a4.69,4.69,0,0,0,.11.91,5.25,5.25,0,0,0-.11.91V138.94A5.28,5.28,0,0,0,92,142.16l24.64,32.37a5.34,5.34,0,0,0,8.48,0l24.64-32.37a5.28,5.28,0,0,0,1.07-3.22V35.06a4.75,4.75,0,0,0-.11-.86,4.22,4.22,0,0,0,.11-.86V20.88ZM101.57,38.71h14v94.16h-14ZM120.9,162.56l-14.55-19.11h29.1Zm19.33-29.69h-14V38.71h14Zm0-104.79H101.57V20.88a10.29,10.29,0,0,1,10.25-10.25H130a10.29,10.29,0,0,1,10.25,10.25v7.19Z" transform="translate(0 0)"/></g></g></g></g></g></svg>