<svg xmlns="http://www.w3.org/2000/svg" xmlns:xlink="http://www.w3.org/1999/xlink" viewBox="0 0 332.58 276"><defs><style>.cls-1{fill:none;}.cls-2{clip-path:url(#clip-path);}.cls-3{fill:#182e3e;}.cls-4{fill:#325272;}</style><clipPath id="clip-path" transform="translate(0 0)"><rect class="cls-1" width="332.58" height="276"/></clipPath></defs><title>laptop</title><g id="Layer_2" data-name="Layer 2"><g id="Layer_1-2" data-name="Layer 1"><g id="Artwork_5" data-name="Artwork 5"><g class="cls-2"><g class="cls-2"><path class="cls-3" d="M136.3,222.67H58.21a6.72,6.72,0,0,0,0,13.43h72.32a15.16,15.16,0,0,0,14.25,10h42.88a15.16,15.16,0,0,0,14.25-10H274.3a6.72,6.72,0,1,0,0-13.43H196.21a6.69,6.69,0,0,0-6.72,6.72v1.49a1.8,1.8,0,0,1-1.76,1.77H144.85a1.8,1.8,0,0,1-1.76-1.77v-1.49a6.79,6.79,0,0,0-6.78-6.72" transform="translate(0 0)"/><path class="cls-3" d="M325.87,222.67H308.23V67.91a6.72,6.72,0,1,0-13.43,0V229.39a6.75,6.75,0,0,0,6.78,6.72h17.57v9.23a17.26,17.26,0,0,1-17.23,17.23H30.67a17.26,17.26,0,0,1-17.23-17.23v-9.23H31a6.69,6.69,0,0,0,6.72-6.72V67.91a6.72,6.72,0,1,0-13.43,0V222.67H6.72A6.69,6.69,0,0,0,0,229.39v15.94A30.72,30.72,0,0,0,30.67,276H301.92a30.72,30.72,0,0,0,30.67-30.67V229.39a6.69,6.69,0,0,0-6.72-6.72" transform="translate(0 0)"/><path class="cls-4" d="M192.41,47.22,153.67,85.76l-13.5-13.57a6.72,6.72,0,1,0-9.5,9.5L148.86,100a6.79,6.79,0,0,0,4.75,2,6.91,6.91,0,0,0,4.75-2l43.56-43.29a6.72,6.72,0,1,0-9.5-9.5" transform="translate(0 0)"/><path class="cls-3" d="M249.2,0H83.38A24.67,24.67,0,0,0,58.76,24.63v98a24.67,24.67,0,0,0,24.63,24.63h7v29.51a9.93,9.93,0,0,0,10,9.91,9.74,9.74,0,0,0,7.46-3.46l31.07-36H249.2a24.67,24.67,0,0,0,24.63-24.63v-98A24.67,24.67,0,0,0,249.2,0m11.2,122.6a11.21,11.21,0,0,1-11.2,11.2H135.76a6.65,6.65,0,0,0-5.09,2.31l-26.93,31.14V140.51A6.69,6.69,0,0,0,97,133.79H83.32a11.21,11.21,0,0,1-11.19-11.2v-98A11.2,11.2,0,0,1,83.32,13.43H249.13a11.21,11.21,0,0,1,11.19,11.19v98Z" transform="translate(0 0)"/></g></g></g></g></g></svg>