<svg xmlns="http://www.w3.org/2000/svg" xmlns:xlink="http://www.w3.org/1999/xlink" viewBox="0 0 240.76 312.05"><defs><style>.cls-1{fill:none;}.cls-2{clip-path:url(#clip-path);}.cls-3{fill:#182e3e;}.cls-4{fill:#325272;}</style><clipPath id="clip-path" transform="translate(0 0)"><rect class="cls-1" width="240.76" height="312.05"/></clipPath></defs><title>piggy-bank</title><g id="Layer_2" data-name="Layer 2"><g id="Layer_1-2" data-name="Layer 1"><g id="Artwork_6" data-name="Artwork 6"><g class="cls-2"><g class="cls-2"><path class="cls-3" d="M191.23,270l1.59-1.4a3,3,0,0,0,.64-.64c.83-1,19.42-22.41,26.49-38.9h3.38a17.47,17.47,0,0,0,17.44-17.45V184a17.47,17.47,0,0,0-17.44-17.45h-3.76a98.59,98.59,0,0,0-28.78-39.79c-1.91-6.81-.51-14.07,4.26-21.65a13,13,0,0,0-12.61-19.8C164,87.61,153,96,146.59,103.72A121.47,121.47,0,0,0,128,100.09a6.31,6.31,0,1,0-1.46,12.54,111.64,111.64,0,0,1,20.56,4.46,6.37,6.37,0,0,0,7.13-2.48c4.33-6.43,13.05-14.58,29.73-16.68a.38.38,0,0,1,.38.19.28.28,0,0,1,0,.38c-6.62,10.57-8.6,21.58-5.67,31.9a6.2,6.2,0,0,0,2.36,4.71c13.43,10.82,23.18,24.58,28.14,39.79a6.29,6.29,0,0,0,6,4.33h8.15a4.84,4.84,0,0,1,4.84,4.84v27.57a4.84,4.84,0,0,1-4.84,4.84h-7.7a6.34,6.34,0,0,0-6,4.46c-3.57,11.65-19.23,31.39-25.34,38.46l-1.4,1.21c-13.12,11.84-14.45,25.85-14.52,30.05v8.85H131.95V291a6.37,6.37,0,0,0-2.1-4.71,6.3,6.3,0,0,0-4.9-1.59,118.35,118.35,0,0,1-27.7-.38,6.16,6.16,0,0,0-5,1.53,6.24,6.24,0,0,0-2.17,4.77v8.85H53.76V296.7c-.32-6.69-2.42-23.62-15.66-37.25-6.24-6.43-11.84-15-16.68-25.28-.06-.06-.06-.13-.13-.25a75.08,75.08,0,0,1-6.49-17.38l-.06-.26c0-.06-.06-.13-.06-.19-2.29-7.64-2-17.25-2-17.32v-.19a83.41,83.41,0,0,1,1-12.61,6.3,6.3,0,1,0-12.42-2.1A85.55,85.55,0,0,0,0,198.46c-.06,1.27-.19,12,2.55,21.2A91.37,91.37,0,0,0,10,239.53c5.35,11.59,11.78,21.2,19,28.65,10.12,10.44,11.84,23.56,12.1,28.91v2.61a4.21,4.21,0,0,0,.06.83A12.42,12.42,0,0,0,53.44,312H90.31a12.36,12.36,0,0,0,12.35-12.35v-2.1a131.49,131.49,0,0,0,16.62.26v1.85A12.36,12.36,0,0,0,131.63,312H168.5a12.36,12.36,0,0,0,12.35-12.35v-9A30.57,30.57,0,0,1,191.23,270" transform="translate(0 0)"/><path class="cls-4" d="M.53,121.87A51.89,51.89,0,1,0,52.42,70,51.94,51.94,0,0,0,.53,121.87m91.18,0A39.28,39.28,0,1,1,52.42,82.58a39.35,39.35,0,0,1,39.28,39.28" transform="translate(0 0)"/><path class="cls-4" d="M147.87,36.17A36.16,36.16,0,1,0,111.7,72.33a36.22,36.22,0,0,0,36.16-36.17m-59.79,0a23.56,23.56,0,1,1,23.56,23.56A23.59,23.59,0,0,1,88.08,36.17" transform="translate(0 0)"/></g></g></g></g></g></svg>