<svg xmlns="http://www.w3.org/2000/svg" xmlns:xlink="http://www.w3.org/1999/xlink" viewBox="0 0 266.57 390"><defs><style>.cls-1{fill:none;}.cls-2{clip-path:url(#clip-path);}.cls-3{fill:#325272;}.cls-4{fill:#182e3e;}</style><clipPath id="clip-path" transform="translate(0 0)"><rect class="cls-1" width="266.57" height="390"/></clipPath></defs><title>strategy</title><g id="Layer_2" data-name="Layer 2"><g id="Layer_1-2" data-name="Layer 1"><g id="Artwork_4" data-name="Artwork 4"><g class="cls-2"><g class="cls-2"><path class="cls-3" d="M12.24,284.33a6,6,0,0,0-.08,1.19,9.73,9.73,0,0,1-.08,1.59C8.82,298,11.53,307,20.28,314.83a12.56,12.56,0,0,1,4.14,11.78,14.15,14.15,0,0,1-8.84,10.83c-.08,0-.16.08-.24.08C6.91,341.11,2.61,347,2.05,355.44c-.16,2.23-.56,4.7-.88,7.25-.4,2.71-.8,5.49-1,8.2-.56,5.49.56,10,3.42,13.46s7.25,5.33,12.9,5.65H245.23a15.58,15.58,0,0,0,10.27-3.26c4.7-3.5,6.93-9.08,6.13-15.45-.4-3.26-.88-6.45-1.43-9.64s-1-6.13-1.35-9.16c0-.16-.08-.4-.08-.56-1.83-8.92-7.56-12.42-12.18-13.86a13.69,13.69,0,0,1-9.48-10.83,15,15,0,0,1,6.05-15c5.65-3.82,8.2-9.56,7.57-16.4-.4-5.33-1.19-10.67-2-15.77-1.35-9.24-7.41-14.57-16.8-14.57H33.66c-14.49.4-19.35,4.54-21.42,18.79m220.57-2.63a8.46,8.46,0,0,1,.24,1.12c.8,5,1.51,9.79,1.91,14.73.16,1.35-.08,1.51-.8,2-.16.08-.24.16-.4.24-9.79,7.41-14.41,18.87-12.18,30.58a29.29,29.29,0,0,0,20.54,23.09c.56.16.8.24,1.12,1.51.4,3.1.88,6.29,1.35,9.32.48,3.19,1,6.13,1.35,9.16a3.12,3.12,0,0,1,0,.88H17.18a10.29,10.29,0,0,1-1.43-.24,14.56,14.56,0,0,1,.08-1.59v-.24c.16-2.23.56-4.7.88-7.25.4-2.71.8-5.49,1-8.44.16-2.15.32-3.11,3.74-4.54A29.74,29.74,0,0,0,40,329.24,28.29,28.29,0,0,0,30.72,303c-4.62-4.06-4.86-6.85-3.5-11.23a19.25,19.25,0,0,0,.72-5.65,23.31,23.31,0,0,1,.88-4.22,43.59,43.59,0,0,1,4.94-.24H231.94a3.55,3.55,0,0,0,.88.08" transform="translate(0 0)"/><path class="cls-3" d="M86.69,335.93h88.15a7.88,7.88,0,1,0,0-15.77H86.69a7.88,7.88,0,1,0,0,15.77" transform="translate(0 0)"/><path class="cls-4" d="M35.18,161.15c-.48,8.36-.56,16.72-.56,24.76,0,5.26-.08,10.67-.24,16.08v25.56A19.37,19.37,0,0,0,54,247.15H163.46l48.49.8c10.35,0,18.39-7.88,18.39-18v-17.2A32.57,32.57,0,0,0,214.82,185,238.21,238.21,0,0,1,188,164.73a7.9,7.9,0,1,0-10.35,11.94,246.92,246.92,0,0,0,28.9,21.74,16.72,16.72,0,0,1,8,14.41V230a2.29,2.29,0,0,1-2.55,2.23l-48.49-.8H54a3.6,3.6,0,0,1-3.82-3.82V202.4c.16-5.49.16-11,.24-16.32.08-8.2.08-15.93.56-24,.88-19.67,3-36.07,6.85-51.6,3.58-15,8.2-30.66,17.92-44.11,9.56-13.78,18.55-19.11,31.06-18.55,15.85.48,27.31-6.21,34.16-19.83a22.8,22.8,0,0,1,10.75-10c-.08,13.22,6,24.53,18,33.68,13.06,10.11,26,20.3,39,30.42s26,20.3,39,30.42c2.23,1.75,3.1,3.11,3.18,3.74s-.4,2.07-2.07,4.22l-12.74,15c-5.33,5.81-9.71,6.61-16.48,2.95-.08,0-.16-.08-.24-.08a97.23,97.23,0,0,1-10.43-5.73c-.08-.08-.16-.08-.16-.16-7.64-4.78-16.72-6.21-26.2-4.14-.08,0-.16.08-.24.08-9,2.31-17.12.4-25.56-6L151,117.67a7.87,7.87,0,0,0-9.87,12.26l5.81,4.7.16.16c12.26,9.32,25.4,12.26,38.94,8.84,5.33-1.11,10.11-.48,14.17,2.07a110.08,110.08,0,0,0,11.95,6.61c13.3,7.09,25.24,4.94,35.59-6.37.08-.08.16-.16.16-.24l12.9-15.21c.08-.08.08-.16.16-.24,4.3-5.49,6.13-10.67,5.42-16s-3.66-9.87-9.16-14.25c-13.06-10.11-26-20.3-39-30.42s-26-20.3-39.1-30.5c-9.56-7.25-13.14-15.53-11.39-26a3.42,3.42,0,0,1,.08-.4c.64-5.73-2-8.92-3.66-10.27C162.1.7,158.28-1.05,152.23.78c-11.55,3.5-20.31,10.35-25.32,20C122.77,29,117,32.31,107.4,32c-23.09-1-36,12.9-44.59,25.08C51.5,72.68,46.16,90.92,42.42,106.6c-4.06,16.56-6.37,33.92-7.25,54.54" transform="translate(0 0)"/></g></g></g></g></g></svg>